HIERARCHY
ROOT Hips
{
  OFFSET 0 0 0
  CHANNELS 6 Xposition Yposition Zposition Zrotation Yrotation Xrotation
  JOINT LeftThigh
  {
    OFFSET 8.409438 0 -5.917753
    CHANNELS 3 Zrotation Yrotation Xrotation
    JOINT LeftLeg
    {
      OFFSET 0 0 -42.358652
      CHANNELS 3 Zrotation Yrotation Xrotation
      JOINT LeftFoot
      {
        OFFSET 0 0 -39.357303
        CHANNELS 3 Zrotation Yrotation Xrotation
      }
    }
  }
  JOINT RightThigh
  {
    OFFSET -8.409438 0 -5.917753
    CHANNELS 3 Zrotation Yrotation Xrotation
    JOINT RightLeg
    {
      OFFSET 0 0 -42.358652
      CHANNELS 3 Zrotation Yrotation Xrotation
      JOINT RightFoot
      {
        OFFSET 0 0 -39.357303
        CHANNELS 3 Zrotation Yrotation Xrotation
      }
    }
  }
  JOINT SpineLow
  {
    OFFSET 0 0 4.719101
    CHANNELS 3 Zrotation Yrotation Xrotation
    JOINT SpineMid
    {
      OFFSET 0 0 12.899191
      CHANNELS 3 Zrotation Yrotation Xrotation
      JOINT Chest
      {
        OFFSET 0 0 12.899191
        CHANNELS 3 Zrotation Yrotation Xrotation
        JOINT LeftShoulder
        {
          OFFSET 7.550562 1.41573 9.438202
          CHANNELS 3 Zrotation Yrotation Xrotation
          JOINT LeftArm
          {
            OFFSET 9.155056 0 4.247191
            CHANNELS 3 Zrotation Yrotation Xrotation
            JOINT LeftForearm
            {
              OFFSET 0 0 25.771955
              CHANNELS 3 Zrotation Yrotation Xrotation
              JOINT LeftHand
              {
                OFFSET 0 0 25.197169
                CHANNELS 3 Zrotation Yrotation Xrotation
              }
            }
          }
        }
        JOINT RightShoulder
        {
          OFFSET -7.550562 1.41573 9.438202
          CHANNELS 3 Zrotation Yrotation Xrotation
          JOINT RightArm
          {
            OFFSET -9.155056 0 4.247191
            CHANNELS 3 Zrotation Yrotation Xrotation
            JOINT RightForearm
            {
              OFFSET 0 0 -25.771955
              CHANNELS 3 Zrotation Yrotation Xrotation
              JOINT RightHand
              {
                OFFSET 0 0 -25.197169
                CHANNELS 3 Zrotation Yrotation Xrotation
              }
            }
          }
        }
        JOINT Neck
        {
          OFFSET 0 0 15.101124
          CHANNELS 3 Zrotation Yrotation Xrotation
          JOINT Head
          {
            OFFSET 0 0 11.325843
            CHANNELS 3 Zrotation Yrotation Xrotation
            End Site
            {
              OFFSET 0 0 14.157303
            }
          }
        }
      }
    }
  }
}
MOTION
Frames: 11
Frame Time: 0.01
0.0  101.685394  0.0  -0.742375  18.50136  -98.571388  28.303296  -21.708348  -8.215994  -12.749971  13.11325  34.11156  4.880567  3.697098  2.71594  -21.529948  15.56543  -8.770253  5.91693  2.817476  30.376331  1.629837  6.274751  -2.399849  -2.583613  -0.866782  1.1755  -7.104793  -2.239997  3.302621  -7.104793  -2.239997  3.302621  -17.695683  28.338952  4.034537  92.001266  62.694025  168.702664  -27.763099  -42.574093  103.621036  53.518365  24.632861  -22.745919  18.14651  -5.860903  23.648229  58.047263  59.310818  -20.874731  -22.291658  -22.736059  -108.096848  56.168248  -3.492268  21.235321  7.949912  1.421682  -3.495401  5.97049  1.021036  -2.640444  
0.0  101.685394  0.0  -1.057999  22.961506  -98.33867  27.271949  -21.734091  -9.140047  -14.366793  13.843958  33.142134  4.467768  3.549764  2.518949  -22.875749  15.94056  -7.964759  4.053244  2.885094  29.879503  1.015887  6.323444  -2.379096  -2.976469  -0.795634  1.062715  -8.171454  -2.039835  2.998495  -8.171453  -2.039835  2.998495  -17.985747  28.488658  3.079801  92.165503  60.996546  170.106222  -25.742584  -41.286647  101.014136  53.601068  23.303775  -23.02327  18.910108  -5.793295  23.432147  54.804674  59.829893  -22.046817  -21.621599  -23.252025  -110.301725  55.901371  -3.768504  22.757129  7.137417  0.902304  -3.514512  5.358351  0.635808  -2.646796  
0.0  101.685394  0.0  -1.265186  27.203184  -98.282073  26.461691  -21.790742  -9.66929  -15.961549  14.534922  31.935975  4.052569  3.3601  2.317515  -23.778164  16.449385  -6.882231  2.039189  2.85714  29.207447  0.444231  6.352354  -2.34631  -3.298641  -0.668156  1.006286  -9.04434  -1.684981  2.836304  -9.04434  -1.684981  2.836304  -18.348482  28.245468  1.707868  93.206776  58.572445  172.137593  -24.075663  -39.308197  98.840153  54.427861  22.306264  -23.352643  19.646436  -5.666648  23.007602  51.18678  60.537584  -23.520042  -20.970809  -23.513055  -112.4986  55.615441  -4.256406  24.046967  6.024446  0.179719  -3.634849  4.51959  0.098971  -2.72822  
0.0  101.685394  0.0  -1.346658  31.062276  -98.468751  25.796348  -21.9057  -9.682314  -17.339328  15.035739  30.58118  3.513275  3.150251  2.068887  -24.045231  17.055987  -5.468652  -0.182425  2.845624  28.419105  -0.176088  6.280468  -2.337905  -3.537401  -0.481514  0.964383  -9.687515  -1.17185  2.70016  -9.687515  -1.17185  2.700159  -17.980857  27.588135  0.910907  94.85927  55.544217  174.793069  -23.86957  -35.575872  97.450777  57.291067  21.573414  -23.258602  20.492094  -5.559442  22.856178  46.773025  61.528596  -25.896383  -20.292282  -24.177063  -114.486915  56.072671  -5.693977  24.656808  4.873929  -0.708226  -3.525386  3.65146  -0.559349  -2.638557  
0.0  101.685394  0.0  -1.315977  34.578387  -98.746594  25.16395  -21.997768  -9.279851  -18.424074  15.229934  29.099709  2.74454  2.967471  1.804157  -23.84147  17.621827  -3.849754  -2.575828  2.923373  27.481714  -0.621323  6.179885  -2.341502  -3.80034  -0.353823  0.978404  -10.400701  -0.810747  2.722416  -10.400701  -0.810747  2.722416  -16.492013  27.033886  0.038601  97.911444  52.406782  178.078776  -24.289374  -27.829921  97.053453  63.216284  20.32204  -22.363504  21.984215  -4.687868  22.502583  41.663613  62.639738  -29.170407  -19.289701  -25.109476  -116.440324  57.301642  -8.112587  24.693791  4.020745  -1.301874  -3.495459  3.008099  -0.999491  -2.61305  
0.0  101.685394  0.0  -1.157565  37.653044  -98.888943  24.544326  -21.997636  -8.628012  -19.308021  15.187891  27.449471  1.999367  2.81277  1.562773  -23.451027  18.024798  -2.263855  -4.863955  3.083191  26.346345  -1.049472  6.022345  -2.3692  -4.11178  -0.317809  0.922352  -11.249788  -0.709187  2.566805  -11.249788  -0.709187  2.566805  -13.572565  27.246168  -0.278654  103.11781  49.567691  -177.804173  -22.427151  -19.056304  97.791594  68.045921  18.435008  -23.141794  24.082732  -3.09285  22.182828  36.131875  63.601708  -33.002003  -18.226781  -26.181088  -117.810004  59.217193  -10.755822  23.734127  3.686272  -1.353011  -3.215459  2.757546  -1.034231  -2.403424  
0.0  101.685394  0.0  -0.885474  40.253833  -98.745252  23.656334  -21.820023  -7.825731  -19.810798  14.960771  25.683743  1.306626  2.61505  1.335475  -23.133858  18.254975  -0.929656  -6.933593  3.302852  25.054772  -1.310466  5.804344  -2.417889  -4.170949  -0.312308  0.875162  -11.410859  -0.700013  2.437834  -11.41086  -0.700013  2.437834  -11.399092  27.409537  -0.308685  108.447423  47.76001  -174.582935  -19.641575  -11.546534  98.718124  71.205221  16.403578  -23.497936  24.95218  -1.356803  21.374453  28.865614  64.363002  -38.276101  -17.420666  -26.14677  -118.632995  60.433078  -13.085107  22.08863  2.82893  -1.252659  -3.070616  2.115382  -0.95376  -2.297129  
0.0  101.685394  0.0  -0.423957  42.256489  -98.49606  22.179114  -21.495794  -6.596938  -19.676061  14.547397  23.896981  0.954991  2.348208  1.277469  -22.8466  18.528708  0.306066  -8.725998  3.556285  23.671961  -1.515433  5.448915  -2.50172  -3.791147  -0.307139  0.970564  -10.373481  -0.685142  2.693609  -10.373481  -0.685142  2.693609  -11.321449  26.997421  -0.629629  113.44142  46.159347  -172.170336  -16.806545  -6.090891  100.295261  70.161396  11.601426  -24.282724  23.314774  0.560626  19.366039  20.935005  64.796023  -44.166609  -16.902142  -25.035315  -118.680227  61.831947  -14.228047  20.176897  0.850247  -1.097722  -3.362636  0.631648  -0.828001  -2.520378  
0.0  101.685394  0.0  0.195708  43.522542  -98.114944  20.447649  -20.989288  -5.178455  -19.104962  14.020909  22.229346  0.665819  1.956573  1.268152  -22.663231  18.855745  1.366731  -10.079763  3.736478  22.178783  -1.612656  5.149682  -2.544462  -3.060976  -0.205305  1.057315  -8.374118  -0.426372  2.910741  -8.374118  -0.426372  2.910741  -12.194704  25.933219  -0.288667  116.247711  44.270463  -171.536865  -15.753325  -0.994439  101.670217  68.938769  5.148691  -22.962811  19.998201  1.676489  17.021685  13.704951  66.05569  -49.55071  -17.94114  -22.892446  -117.497341  64.241799  -13.954246  18.703171  -1.901691  -1.177847  -3.428784  -1.43288  -0.872759  -2.575192  
0.0  101.685394  0.0  0.921619  43.987388  -97.578017  19.134573  -20.228505  -3.791012  -18.553437  13.269632  20.713704  0.730432  1.590646  1.383573  -22.74018  19.333989  2.119293  -10.861786  3.720303  20.617746  -1.483229  4.813971  -2.517716  -2.162176  -0.138501  1.34944  -5.915732  -0.257549  3.697564  -5.915732  -0.257549  3.697564  -13.651187  24.551001  -1.090934  116.554493  42.902979  -172.708416  -17.149889  4.334372  101.869551  69.218869  -1.602262  -18.027281  16.122521  3.012418  13.096193  6.181181  68.673969  -55.112751  -20.619595  -19.983467  -114.994882  68.093209  -12.599279  18.033701  -4.703951  -1.20772  -4.115304  -3.536155  -0.874223  -3.095877  
0.0  101.685394  0.0  1.689785  43.927134  -96.923319  18.38405  -19.319477  -2.4709  -18.163669  12.2485  19.273274  0.770778  1.347717  1.533915  -23.469866  20.008496  2.376734  -11.360599  4.010647  19.215706  -0.738038  4.180268  -2.501965  -1.410707  -0.247501  1.485952  -3.869653  -0.589328  4.074646  -3.869653  -0.589328  4.074646  -13.539402  24.859166  -0.996681  116.278624  42.726192  -175.075016  -20.222264  8.585863  101.475587  69.698431  -6.626672  -11.932474  13.098399  5.24827  10.299051  -3.876649  72.155816  -63.374687  -24.539666  -15.76016  -111.277857  73.852783  -11.065783  18.42992  -6.677326  -0.412587  -4.324733  -5.01119  -0.262237  -3.248503  
